<svg width="324" height="281" viewBox="0 0 324 281" fill="none" xmlns="http://www.w3.org/2000/svg">
<path d="M264.433 92.0159C260.771 91.4814 257.629 89.9102 253.967 88.8735C254.502 86.784 254.502 84.6945 255.539 81.5521C262.861 43.9409 257.645 14.1694 240.91 3.70564C224.192 -5.68906 197.008 4.22397 169.841 27.7431C167.735 29.8326 164.09 31.9222 162 35.0483C160.429 33.4933 158.339 31.9222 156.767 29.8327C128.029 4.24017 99.8082 -6.22359 82.053 3.70564C65.3184 13.1003 60.102 41.8514 67.4082 76.8548C67.9428 80.5155 68.9796 84.1762 69.5142 87.3023C65.853 87.8369 61.6572 89.4081 58.0122 90.963C24.0408 102.982 0 122.322 0 140.609C0 160.451 25.596 180.31 60.6204 191.794C63.747 192.329 66.3714 193.9 69.498 193.9C68.9796 197.561 67.4082 201.205 67.4082 205.4C60.6042 239.885 65.853 267.567 82.5714 276.978C99.2898 287.426 128.547 276.978 155.731 251.904C157.82 249.798 159.91 248.243 162.535 246.154C165.271 248.847 168.242 251.292 171.412 253.459C197.543 276.978 224.71 286.389 241.963 276.978C258.682 266.531 264.433 237.261 257.11 200.687C256.592 198.597 256.592 194.953 255.004 191.81C257.11 191.292 258.682 191.292 260.771 189.705C297.351 178.755 324 158.913 324 139.038C323.482 122.84 298.404 104.035 264.433 92.0159ZM178.735 38.7252C202.225 18.3322 224.192 11.027 234.625 16.2427C245.09 21.9929 249.269 47.0671 242.482 79.9971C241.963 82.0867 241.963 83.6416 240.91 86.784C226.8 83.6416 213.208 81.0338 198.58 79.9809C190.739 68.4967 181.861 56.4942 172.449 47.0671C174.018 43.9264 176.142 41.0949 178.718 38.709M106.061 174.025C109.204 179.775 112.865 185.007 116.527 190.223C106.667 189.674 96.8727 188.276 87.2532 186.044C89.6666 176.442 93.1724 167.149 97.7022 158.346C99.8082 163.043 103.453 169.328 106.061 174.025ZM87.2694 98.7866C96.7681 96.6511 106.35 94.9056 115.992 93.5547C112.331 98.7866 109.188 104.018 106.596 109.752C103.972 115.503 100.845 120.216 97.7022 126.485C93.0042 116.556 90.4122 107.663 87.2694 98.7866ZM103.955 142.148C107.617 133.272 112.849 125.432 118.066 116.556C123.298 107.663 128.515 99.8232 133.229 91.4652C142.625 90.9468 152.037 90.9468 161.968 90.9468C171.364 90.9468 181.829 91.4652 190.706 91.4652C196.457 99.3049 201.155 107.663 205.87 115.503C211.086 123.342 215.266 132.235 219.964 141.095C216.319 150.004 211.086 157.827 205.87 166.72C200.637 175.596 195.404 183.436 190.706 191.794C181.31 192.312 171.898 192.312 161.449 192.312C151 192.312 141.588 191.794 132.71 191.794C126.959 183.954 122.245 175.596 117.547 166.72C112.849 157.827 108.67 151.041 103.955 142.148ZM217.89 174.025C221.017 168.275 223.625 163.059 226.768 157.309C230.429 166.185 234.09 175.596 237.217 185.007C227.821 187.097 217.355 188.652 206.923 190.223C211.086 185.007 214.747 179.257 217.89 174.025ZM227.286 125.95C224.159 120.216 221.535 114.984 218.408 109.234C215.282 103.484 211.604 98.7866 209.012 94.0892C218.654 95.4348 228.236 97.1748 237.735 99.3049C234.608 108.197 230.947 117.074 227.286 125.95ZM162 55.4575C168.804 62.7627 174.539 70.0841 180.29 77.9238C167.756 77.4038 155.207 77.4038 142.673 77.9238C149.461 69.5658 156.249 62.2444 162 55.4575ZM88.8408 16.7449C99.2898 11.0108 123.331 18.8506 147.371 41.8352C148.943 43.4064 150.498 44.9614 152.588 46.0142C143.192 56.4618 134.298 67.9622 125.42 78.9281C111.191 80.3815 97.0577 82.653 83.0898 85.7312C82.5714 82.5888 81.5184 78.9281 81 76.3202C75.249 45.4959 78.9102 22.4951 88.8408 16.7449ZM74.196 182.934C72.09 182.399 68.9634 181.363 66.3552 180.828C51.7837 176.88 38.1173 170.142 26.1144 160.986C18.792 155.754 15.1308 149.486 13.5756 142.164C13.5756 130.664 33.9552 116.053 62.694 105.59C66.3552 104.035 70.0164 103.5 73.6614 101.945C77.841 116.037 83.0736 129.109 88.8246 142.164C83.592 155.236 77.841 168.291 74.196 182.934ZM146.837 244.064C136.274 253.542 124.047 260.984 110.776 266.012C107.399 267.767 103.665 268.726 99.8602 268.816C96.0555 268.906 92.2807 268.124 88.8246 266.531C78.3756 260.78 74.7144 238.832 79.9308 208.543C80.4654 204.866 81.5022 201.221 82.0368 198.079C96.1308 201.221 110.776 203.311 124.351 203.829C132.192 215.33 142.123 227.332 151.535 237.796C151.016 240.922 148.91 242.493 146.837 244.064ZM162.502 229.438C155.698 222.116 149.963 214.795 143.694 206.955C149.445 206.955 155.196 207.49 161.984 207.49C168.772 207.49 175.041 207.49 180.792 206.955C175.057 213.758 169.29 221.08 162.502 229.438ZM245.074 247.693C244.555 255.014 240.894 262.854 234.625 267.551C224.176 273.301 203.261 265.996 180.274 245.619C178.184 243.514 175.057 241.424 172.433 238.298C182.012 227.672 190.749 216.315 198.563 204.331C213.192 203.813 227.302 200.671 240.894 197.528C241.412 199.634 241.412 202.76 242.465 204.85C246.127 219.492 246.127 234.119 245.074 247.693ZM256.576 180.31C255.004 180.828 252.914 180.828 250.825 181.865C246.645 167.757 240.376 154.701 234.625 141.63C240.376 129.093 245.592 115.503 249.772 101.929C253.433 102.447 256.576 104.018 259.184 105.055C288.441 115.503 308.821 130.129 308.821 141.63C309.355 153.648 287.923 169.846 256.576 180.294" fill="#F7FAFC"/>
<path d="M162.547 169.812C154.495 169.812 146.773 166.614 141.08 160.92C135.386 155.227 132.188 147.505 132.188 139.453C132.188 127.152 139.254 116.124 150.195 111.362C150.581 111.193 151.008 111.145 151.421 111.224C151.835 111.302 152.215 111.503 152.512 111.8C152.81 112.098 153.01 112.478 153.089 112.891C153.167 113.305 153.119 113.732 152.951 114.117C151.695 117.002 151.031 120.696 151.031 124.797C151.031 139.228 162.772 150.969 177.203 150.969C181.304 150.969 184.998 150.305 187.883 149.049C188.268 148.881 188.695 148.833 189.109 148.911C189.522 148.99 189.902 149.19 190.2 149.488C190.497 149.785 190.698 150.165 190.776 150.579C190.855 150.992 190.807 151.419 190.638 151.805C185.876 162.746 174.848 169.812 162.547 169.812Z" fill="#F7FAFC"/>
</svg>
